# xmcd
#
# Track frame offsets: 
#        150
#        19965
#        37176
#        73497
#        101565
#        132750
#        155283
#        192516
#        216596
#        256664
#        281404
#
# Disc length: 4219 seconds
#
# Revision: 2
# Processed by: cddbd v1.5.2PL0 Copyright (c) Steve Scherf et al.
# Submitted via: ExactAudioCopy v0.99pb5
#
DISCID=a810790b
DTITLE=5 Geschwister (Dieter B. Kabus) - Vol. 6 - Im verlassenen Klost
DTITLE=er
DYEAR=2006
DGENRE=Vocal
TTITLE0=Gewitternacht im Kloster
TTITLE1=Tauchen in der Ägäis
TTITLE2=Der große Unterwasserfund
TTITLE3=Ein geheimnisvoller Beobachter
TTITLE4=Gefährliche Tauchmanöver!
TTITLE5=Merkwürdige Krankenhaus-Methoden
TTITLE6=Tintenfisch - oder Sabotage?
TTITLE7=Hilfe von der Botschaft
TTITLE8=Unheimliche Höhlen
TTITLE9=Im Berg gefangen!
TTITLE10=Feuchte Flucht
EXTD=www.gerth.de - ArtNo. 938336
EXTT0=
EXTT1=
EXTT2=
EXTT3=
EXTT4=
EXTT5=
EXTT6=
EXTT7=
EXTT8=
EXTT9=
EXTT10=
PLAYORDER=
